# xmcd CD database file
#
# Track frame offsets:
#	150
#	26886
#	51928
#	77863
#	107235
#	133708
#	159846
#	188924
#	218403
#	236917
#
# Disc length: 3448 seconds
#
# Revision: 0
# Processed by: cddbd v1.5.2PL0 Copyright (c) Steve Scherf et al.
# Submitted via: CDex 1.70beta2
#
DISCID=870d760a
DTITLE=Brad Shepik Trio - Places You Go
DYEAR=2007
DGENRE=Jazz
TTITLE0=Temoin
TTITLE1=Air
TTITLE2=Return
TTITLE3=Crossing
TTITLE4=Five and Dime
TTITLE5=The South
TTITLE6=As Was
TTITLE7=Frozen
TTITLE8=Batur
TTITLE9=Tides
EXTD=YEAR: 2007
EXTT0=
EXTT1=
EXTT2=
EXTT3=
EXTT4=
EXTT5=
EXTT6=
EXTT7=
EXTT8=
EXTT9=
PLAYORDER=
